<svg xmlns="http://www.w3.org/2000/svg" width="21" height="19.685" viewBox="0 0 21 19.685">
  <g id="btn_connecter" transform="translate(10.5 9.843)">
    <g id="Icone_LogIn" data-name="Icone LogIn" transform="translate(-10.5 -9.843)">
      <path id="Tracé_770" data-name="Tracé 770" d="M0,31.582V28.4a.659.659,0,0,1,.659-.659H2.25V25.4a.659.659,0,0,1,.659-.659h.568a.659.659,0,0,1,.466.193L9,29.991,3.922,35.069a.588.588,0,0,1-.416.172H2.838a.588.588,0,0,1-.588-.588V32.241H.659A.659.659,0,0,1,0,31.582Z" transform="translate(0 -18.556)" fill="none"/>
      <path id="Tracé_771" data-name="Tracé 771" d="M28.153,28.115H15.87a1,1,0,0,1-1-1V13.239a1,1,0,0,1,1-1h8.368a1,1,0,0,1,.707.293l3.914,3.914a1,1,0,0,1,.293.707v9.961A1,1,0,0,1,28.153,28.115Z" transform="translate(-11.153 -9.179)" fill="none"/>
      <path id="Login_Door_Icon" data-name="Login Door Icon" d="M22.75,18.185H21V3.32a1.318,1.318,0,0,0-.972-1.288L13.592.04A1.083,1.083,0,0,0,13.28,0,1.307,1.307,0,0,0,12,1.328V19.685H22.75a.5.5,0,0,0,.5-.5v-.5A.5.5,0,0,0,22.75,18.185Zm-8.5-6c-.415,0-.75-.5-.75-1.125s.335-1.125.75-1.125.75.5.75,1.125S14.665,12.185,14.25,12.185Zm-9,4.5v1.5H3.5a.5.5,0,0,0-.5.5v.5a.5.5,0,0,0,.5.5H6.75v-3.9Zm1.5-14.25a1.5,1.5,0,0,0-1.5,1.5v2.25l1.5,1.168V3.935H10.5v-1.5Z" transform="translate(-2.25 0)" fill="#fff"/>
      <path id="Fleche" d="M5.25,38.241v-2.25H3v-3H5.25v-2.25l5.25,3.75Z" transform="translate(-2.25 -23.056)" fill="#fff"/>
    </g>
  </g>
</svg>
