<svg xmlns="http://www.w3.org/2000/svg" xmlns:xlink="http://www.w3.org/1999/xlink" width="20.25" height="20.892" viewBox="0 0 20.25 20.892">
  <defs>
    <clipPath id="clip-path">
      <path id="Tracé_745" data-name="Tracé 745" d="M17.028,23.877,8.7,18.627V8.98H24.528v9.647Z" transform="translate(-8.704 -8.98)" fill="none"/>
    </clipPath>
    <clipPath id="clip-path-2">
      <path id="Tracé_746" data-name="Tracé 746" d="M0,11.568v19.5H20.25v-19.5Zm16.5,9-6,3.75-6.75-3.75v-8.25H16.5Z" transform="translate(0 -11.568)" fill="none"/>
    </clipPath>
    <clipPath id="clip-path-3">
      <path id="Tracé_749" data-name="Tracé 749" d="M26.25,8.25H12L12.059,6h14.25Z" transform="translate(-12 -6)" fill="none"/>
    </clipPath>
  </defs>
  <g id="btn_pas_avocat" transform="translate(10.125 10.446)">
    <g id="Icone_Mail" data-name="Icone Mail" transform="translate(-10.125 -10.446)">
      <rect id="Rectangle_1324" data-name="Rectangle 1324" width="18.75" height="11.25" transform="translate(0.75 8.892)" fill="none"/>
      <rect id="Rectangle_1325" data-name="Rectangle 1325" width="12.75" height="10.5" transform="translate(3.75 2.142)" fill="none"/>
      <g id="Courrier" transform="translate(2.176 0.745)">
        <g id="Groupe_1319" data-name="Groupe 1319" clip-path="url(#clip-path)">
          <g id="Icon_Voir_Texte" data-name="Icon Voir Texte" transform="translate(0.824 0.75)">
            <g id="Groupe_625" data-name="Groupe 625">
              <path id="Icon_metro-file-empty" data-name="Icon metro-file-empty" d="M24.762,11.978h-11.2A1.566,1.566,0,0,0,12,13.54v7.835l1.5,1V13.79a.318.318,0,0,1,.313-.312h10.7a.314.314,0,0,1,.313.313v8.585l1.5-1V13.54A1.563,1.563,0,0,0,24.762,11.978Z" transform="translate(-12 -11.978)" fill="#fff"/>
            </g>
          </g>
          <rect id="Rectangle_1326" data-name="Rectangle 1326" width="5.25" height="1.5" rx="0.75" transform="translate(3.824 4.397)" fill="#fff"/>
          <rect id="Rectangle_1327" data-name="Rectangle 1327" width="8.25" height="1.5" rx="0.75" transform="translate(3.824 7.397)" fill="#fff"/>
        </g>
      </g>
      <g id="Groupe_1321" data-name="Groupe 1321" transform="translate(0 1.392)">
        <g id="Groupe_1320" data-name="Groupe 1320" clip-path="url(#clip-path-2)">
          <path id="Icon_metro-file-empty-2" data-name="Icon metro-file-empty" d="M12.173,14.492a3,3,0,0,0-3.331-.079L1.3,19.2A3,3,0,0,0,0,21.665v9.625a1.564,1.564,0,0,0,1.563,1.562H18.83a1.5,1.5,0,0,0,1.42-1.562V21.725A3,3,0,0,0,18.876,19.2ZM18.75,31.039a.317.317,0,0,1-.312.313H1.813a.317.317,0,0,1-.312-.312V21.914a.317.317,0,0,1,.313-.312l8.722,5.238,8.216-4.5Z" transform="translate(0 -13.352)" fill="#fff"/>
        </g>
      </g>
      <path id="Tracé_747" data-name="Tracé 747" d="M11.506,48.838a3.748,3.748,0,0,1-1.965-.554L1.428,43.291l.786-1.278,8.113,4.993a2.255,2.255,0,0,0,2.427-.044l7.4-4.934.832,1.248-7.4,4.934A3.75,3.75,0,0,1,11.506,48.838Z" transform="translate(-1.071 -33.01)" fill="#fff"/>
      <rect id="Rectangle_1328" data-name="Rectangle 1328" width="1.5" height="8.894" transform="translate(11.683 15.27) rotate(-56.31)" fill="#fff"/>
      <rect id="Rectangle_1329" data-name="Rectangle 1329" width="9.526" height="1.5" transform="matrix(0.852, -0.524, 0.524, 0.852, 0.357, 18.941)" fill="#fff"/>
      <g id="Pointe" transform="translate(3)">
        <g id="Groupe_1322" data-name="Groupe 1322" clip-path="url(#clip-path-3)">
          <path id="Tracé_748" data-name="Tracé 748" d="M20.25,21.725A3,3,0,0,0,18.876,19.2l-6.7-4.712a3,3,0,0,0-3.331-.079L1.3,19.2A3,3,0,0,0,0,21.665Z" transform="translate(-3 -11.96)" fill="#fff"/>
        </g>
      </g>
    </g>
  </g>
</svg>
