<svg xmlns="http://www.w3.org/2000/svg" xmlns:xlink="http://www.w3.org/1999/xlink" width="21.033" height="21" viewBox="0 0 21.033 21">
  <defs>
    <clipPath id="clip-path">
      <path id="Tracé_759" data-name="Tracé 759" d="M12.723,9l.027,3,.75.75v4.5h5.25V21H0V0H18.75V9Z" fill="none"/>
    </clipPath>
  </defs>
  <g id="btn_telecharger" transform="translate(10.516 10.5)">
    <g id="Icone_DL_PDF" data-name="Icone DL PDF" transform="translate(-10.516 -10.5)">
      <g id="FondBlanc" transform="translate(1.5 1.5)">
        <path id="Tracé_755" data-name="Tracé 755" d="M20.75,24H7a1,1,0,0,1-1-1V7A1,1,0,0,1,7,6h9.836a1,1,0,0,1,.707.293l3.914,3.914a1,1,0,0,1,.293.707V23A1,1,0,0,1,20.75,24Z" transform="translate(-6 -6)" fill="none"/>
        <path id="Tracé_756" data-name="Tracé 756" d="M63.789,36h2.432a.659.659,0,0,1,.659.659V37.5h.841a.659.659,0,0,1,.659.659v.568a.658.658,0,0,1-.193.466L66.13,41.25h1.591a.659.659,0,0,1,.659.659v1.682a.659.659,0,0,1-.659.659H63.789a.659.659,0,0,1-.659-.659V36.659A.659.659,0,0,1,63.789,36Z" transform="translate(-48.848 -28.5)" fill="none"/>
      </g>
      <rect id="Rectangle_1331" data-name="Rectangle 1331" width="6" height="1.5" transform="translate(14.25 15)" fill="#fff"/>
      <path id="Tracé_757" data-name="Tracé 757" d="M63,40.5l-3,3-3-3h1.5V39h3v1.5Z" transform="translate(-42.75 -29.25)" fill="#fff"/>
      <g id="Groupe_1326" data-name="Groupe 1326">
        <g id="Groupe_1325" data-name="Groupe 1325" clip-path="url(#clip-path)">
          <g id="Icon_Voir_Texte" data-name="Icon Voir Texte" transform="translate(0.75 0.75)">
            <g id="Groupe_625" data-name="Groupe 625">
              <path id="Icon_metro-file-empty" data-name="Icon metro-file-empty" d="M18,5.25C16.427,3.677,15.937,3,15,3H4.562A1.564,1.564,0,0,0,3,4.563V20.938A1.564,1.564,0,0,0,4.563,22.5H18.829a1.5,1.5,0,0,0,1.42-1.562V8.25C20.25,7.5,19.573,6.823,18,5.25Zm-1,1a9.856,9.856,0,0,1,1.75,2H15V4.5A12.9,12.9,0,0,1,17,6.25Zm1.75,14.438a.317.317,0,0,1-.312.313H4.813a.317.317,0,0,1-.312-.312V4.813A.317.317,0,0,1,4.813,4.5H13.5V9.125a.625.625,0,0,0,.625.625H18.75Z" transform="translate(-3 -3)" fill="#fff"/>
            </g>
            <path id="Tracé_758" data-name="Tracé 758" d="M14.3,29.75a.5.5,0,0,1-.267-.077l-1.082-.685a.5.5,0,0,1-.146-.7,11.446,11.446,0,0,1,4.125-3.457,11.187,11.187,0,0,0,.562-1.112,12.671,12.671,0,0,0,.58-1.727,12.687,12.687,0,0,1-.517-5.559.5.5,0,0,1,.746-.361l1.293.75a.5.5,0,0,1,.248.464,29.411,29.411,0,0,1-.719,4.637,4.783,4.783,0,0,0,.937,1.446q.249.257.5.475a14.081,14.081,0,0,1,4.868.428.5.5,0,0,1,.336.622l-.4,1.332a.5.5,0,0,1-.469.357,7.943,7.943,0,0,1-4.642-1.7,9.707,9.707,0,0,0-1.625.344,8.48,8.48,0,0,0-1,.376,28.723,28.723,0,0,1-2.965,3.984A.5.5,0,0,1,14.3,29.75Zm-.349-1.313.254.161c.306-.359.832-.992,1.392-1.753A11.143,11.143,0,0,0,13.947,28.438Zm8.034-3.644a7.268,7.268,0,0,0,2.54.764l.135-.452A14.012,14.012,0,0,0,21.981,24.794Zm-3.26-1.506c-.1.283-.2.559-.315.822-.023.053-.047.107-.07.16h0c.323-.1.645-.18.965-.245A5.278,5.278,0,0,1,18.722,23.287Zm-.247-5.961a13.364,13.364,0,0,0,.072,2.361c.152-.946.233-1.747.27-2.163Z" transform="translate(-10.286 -12.75)" fill="#fff"/>
          </g>
        </g>
      </g>
    </g>
  </g>
</svg>
