<svg xmlns="http://www.w3.org/2000/svg" xmlns:xlink="http://www.w3.org/1999/xlink" width="21.75" height="21" viewBox="0 0 21.75 21">
  <defs>
    <clipPath id="clip-path">
      <path id="Tracé_701" data-name="Tracé 701" d="M13.25,9.442C12.062,9.889,10,12.213,10,13.5s2.062,3.611,3.25,4.058c1.453.546,5.5-.308,5.5-.308V21H0V0H18.75V9.75S14.7,8.9,13.25,9.442Z" fill="none"/>
    </clipPath>
  </defs>
  <g id="btn_diagnostic" transform="translate(10.875 10.5)">
    <g id="Icone_View_Doc" data-name="Icone View Doc" transform="translate(-10.875 -10.5)">
      <g id="FondBlanc" transform="translate(1.467 1.5)">
        <path id="Tracé_699" data-name="Tracé 699" d="M20.62,24H6.87a1,1,0,0,1-1-1V7a1,1,0,0,1,1-1h9.836a1,1,0,0,1,.707.293l3.914,3.914a1,1,0,0,1,.293.707V23A1,1,0,0,1,20.62,24Z" transform="translate(-5.87 -6)" fill="none"/>
        <path id="Tracé_700" data-name="Tracé 700" d="M46.31,45.938A6.359,6.359,0,0,1,40.644,42.4a1.324,1.324,0,0,1,0-1.186,6.32,6.32,0,0,1,11.343,0,1.323,1.323,0,0,1,0,1.187,6.36,6.36,0,0,1-5.665,3.53H46.31Z" transform="translate(-31.846 -29.766)" fill="none"/>
      </g>
      <g id="Groupe_1296" data-name="Groupe 1296">
        <g id="Groupe_1295" data-name="Groupe 1295" clip-path="url(#clip-path)">
          <g id="Icon_Voir_Texte" data-name="Icon Voir Texte" transform="translate(0.75 0.75)">
            <g id="Groupe_625" data-name="Groupe 625">
              <path id="Icon_metro-file-empty" data-name="Icon metro-file-empty" d="M18,5.25C16.427,3.677,15.938,3,15,3H4.562A1.564,1.564,0,0,0,3,4.563V20.938A1.564,1.564,0,0,0,4.563,22.5H18.83a1.5,1.5,0,0,0,1.42-1.562V8.25C20.25,7.5,19.573,6.823,18,5.25Zm-1,1a9.856,9.856,0,0,1,1.75,2H15V4.5A12.9,12.9,0,0,1,17,6.25Zm1.75,14.438a.317.317,0,0,1-.312.313H4.813a.317.317,0,0,1-.312-.312V4.813A.317.317,0,0,1,4.813,4.5H13.5V9.125a.625.625,0,0,0,.625.625H18.75Z" transform="translate(-3 -3)" fill="#fff"/>
              <rect id="Rectangle_1295" data-name="Rectangle 1295" width="8.75" height="1.5" rx="0.75" transform="translate(4.25 9.75)" fill="#fff"/>
              <rect id="Rectangle_1296" data-name="Rectangle 1296" width="8.75" height="1.5" rx="0.75" transform="translate(4.5 13.5)" fill="#fff"/>
              <rect id="Rectangle_1297" data-name="Rectangle 1297" width="3.75" height="1.5" rx="0.75" transform="translate(4.5 6)" fill="#fff"/>
            </g>
          </g>
        </g>
      </g>
      <path id="Icon_awesome-eye" data-name="Icon awesome-eye" d="M53.7,43.806a5.57,5.57,0,0,0-10,0,.569.569,0,0,0,0,.513,5.57,5.57,0,0,0,10,0A.569.569,0,0,0,53.7,43.806Zm-5,2.788a2.531,2.531,0,1,1,2.531-2.531,2.531,2.531,0,0,1-2.531,2.531Zm0-4.219a1.676,1.676,0,0,0-.445.066.841.841,0,0,1-1.175,1.175A1.683,1.683,0,1,0,48.7,42.374Z" transform="translate(-32.724 -30.516)" fill="#fff"/>
    </g>
  </g>
</svg>
