<svg xmlns="http://www.w3.org/2000/svg" width="47.723" height="40.477" viewBox="0 0 47.723 40.477"><g transform="translate(23.861 20.239)"><path d="M28.389,40.477a2.415,2.415,0,0,1-2.416-2.411V25.375a2.414,2.414,0,0,1,2.41-2.416h2.422V16.615a6.345,6.345,0,0,1,12.689,0v6.344h1.813a2.419,2.419,0,0,1,2.416,2.416V38.061a2.419,2.419,0,0,1-2.416,2.416Zm6.039-7.553a2.717,2.717,0,1,0,2.72-2.717,2.717,2.717,0,0,0-2.72,2.717Zm.8-18.231a2.692,2.692,0,0,0-.8,1.922v6.344h5.435V16.615a2.712,2.712,0,0,0-4.636-1.922Zm-31,25.784A4.224,4.224,0,0,1,0,36.258V35.041A12.082,12.082,0,0,1,12.078,22.953H23.111a3.324,3.324,0,0,0-.761,2.117V38.359a3.325,3.325,0,0,0,.761,2.118ZM6.645,10.27A10.268,10.268,0,1,1,16.914,20.537h0A10.264,10.264,0,0,1,6.643,10.279V10.27Z" transform="translate(-23.861 -20.239)" fill="#03b3e4"/></g></svg>