<svg xmlns="http://www.w3.org/2000/svg" viewBox="0 0 409.69 457.49"><defs><style>.cls-1{isolation:isolate;}.cls-2{fill:#8c83ba;}.cls-3{fill:#009de0;}.cls-3,.cls-5{mix-blend-mode:multiply;}.cls-4{fill:#1469af;}.cls-5{fill:#1369b0;}</style></defs><g class="cls-1"><g id="Calque_2" data-name="Calque 2"><g id="Calque_2-2" data-name="Calque 2"><g id="Icone_Planete_Separation" data-name="Icone Planete Separation"><path class="cls-2" d="M204.84,437.36a204.25,204.25,0,0,1-147.9-63.12L41.62,393.1c46.09,44.06,105.06,64.39,164.7,64.39,89.1,0,146.83-45.15,163.25-103.2A204.52,204.52,0,0,1,204.84,437.36Z"/><path class="cls-2" d="M341.47,79.91l20.06-25c-38-35.25-90.14-54.9-143-54.9-67,0-120.13,30.64-144.84,75.19a204.81,204.81,0,0,1,267.79,4.72Z"/><path class="cls-3" d="M60,115.32A119.43,119.43,0,0,1,73.68,75.19q-7.32,6.09-14,12.84A210.48,210.48,0,0,0,60,115.32Z"/><path class="cls-3" d="M97.2,324.65c1.55,1.35,3.14,2.66,4.75,4q17.37-5.82,36.36-11.18c29.07-8.18,58.92-15.1,88.75-20.56a4.5,4.5,0,0,1,1.62,8.85c-29.55,5.42-59.13,12.27-87.93,20.38-10.39,2.92-20.37,6-30,9.08,29.34,20.42,65.49,31.5,97.61,31.5,40,0,58.29-14.91,58.29-38.63a30.34,30.34,0,0,0-4.77-17.11c-14.86-14.08-38.49-21.67-64.56-30-35.57-11.41-75.88-24.35-105.14-57.23C65.62,193.84,50.09,146.18,50.36,98A204.43,204.43,0,0,0,11.23,165.5C23.36,160,35.64,154.82,48,150a4.5,4.5,0,1,1,3.3,8.37C36.58,164.12,22,170.4,7.6,177.06a206.06,206.06,0,0,0-4.93,88.51A929.1,929.1,0,0,1,92.47,234,4.5,4.5,0,1,1,95,242.6a916.55,916.55,0,0,0-90.67,32,203.81,203.81,0,0,0,35.15,78.82,548,548,0,0,1,51.43-21Z"/><path class="cls-3" d="M45.1,360.74q5.63,7,11.84,13.5l22.88-28.18Q61.54,353.05,45.1,360.74Z"/><path class="cls-3" d="M168.22,126.83c4,16.49,14.83,27.27,29.62,35.54a51.45,51.45,0,0,1,12.47-71.25c-26.4,1.92-43.51,13.34-45.18,32.49A4.51,4.51,0,0,1,168.22,126.83Z"/><path class="cls-3" d="M354.25,92.4q-6.11-6.51-12.78-12.49l-10,12.42C339.09,92.29,346.68,92.33,354.25,92.4Z"/><path class="cls-3" d="M324.23,101.41l-17.6,21.94a223.52,223.52,0,0,0-20-12.62,51.53,51.53,0,0,1-34.33,72.39c13.26,4.27,27.06,8.88,40.62,14.72a940,940,0,0,1,113.69-1.09,204,204,0,0,0-44.27-95.26C349.63,101.3,336.91,101.28,324.23,101.41Z"/><path class="cls-3" d="M309.56,205.83c15.46,8.23,30.13,18.7,42.75,32.87,10.49,11.79,19.25,26.14,26,42.33,11.82-.37,20-.42,25.65-.33a206.29,206.29,0,0,0,4-74.86A928.09,928.09,0,0,0,309.56,205.83Z"/><path class="cls-3" d="M381.78,289.93A204.53,204.53,0,0,1,390,320.17a204.06,204.06,0,0,0,11.57-30.5C396.86,289.63,390.43,289.69,381.78,289.93Z"/><path class="cls-3" d="M371.68,290.26a148,148,0,0,1,2.73,29,128.69,128.69,0,0,1-4.84,35.06,203,203,0,0,0,13.53-20.8,200,200,0,0,0-10.78-43.25Z"/><path class="cls-4" d="M243.74,168.93l-3.87-20.62,7.35-1.38c13.08-2.46,23.23-11.08,20.43-26-2.86-15.28-14.95-18-28.6-15.49l-21.87,4.11,11.66,62.16Zm-3.35-51.56c7.26-1.36,11.59.1,12.75,6.31s-1.63,10.28-9,11.66l-6.49,1.22-3.39-18Z"/><path class="cls-5" d="M97.2,324.65l-6.28,7.74q5.43-1.93,11-3.79C100.34,327.31,98.75,326,97.2,324.65Z"/><path class="cls-5" d="M374.41,319.23a128.69,128.69,0,0,1-4.84,35.06A204.85,204.85,0,0,1,56.94,374.24l22.88-28.18q14.81-5.65,30.92-10.89c29.34,20.41,65.49,31.5,97.61,31.5,40,0,58.29-14.91,58.29-38.63a30.34,30.34,0,0,0-4.77-17.11,49.21,49.21,0,0,1,14.4,24.61,4.5,4.5,0,0,0,4.36,3.44,4.43,4.43,0,0,0,1.08-.13,4.5,4.5,0,0,0,3.3-5.44c-9-36.71-45.87-48.55-84.95-61.09-34.47-11.05-73.54-23.59-101.17-54.63-22-24.7-36-62.51-38.94-102.37A119.63,119.63,0,0,1,73.67,75.19a204.83,204.83,0,0,1,267.8,4.72l-10,12.42q-8.44,0-16.84.18a4.51,4.51,0,0,0-4.43,4.58,4.46,4.46,0,0,0,4.58,4.42c3.13-.05,6.27-.07,9.41-.1l-17.6,21.94a223.52,223.52,0,0,0-20-12.62,51.54,51.54,0,0,0-76.33-19.61c-26.37,1.93-43.46,13.35-45.13,32.49a4.45,4.45,0,0,0-2.35-.08,4.5,4.5,0,0,0-3.31,5.44c7.22,29.56,32.56,43,62.57,53.65,7.25,2.58,14.77,5,22.38,7.43,9.15,2.94,18.62,6,28.12,9.44l-3.19.29a4.5,4.5,0,0,0,.42,9l.43,0q10.51-1,21.06-1.76c19.82,8.76,38.87,20.33,54.33,37.71a140.4,140.4,0,0,1,23.1,36.68c-2.85.11-5.85.24-9.05.39a4.5,4.5,0,0,0,.2,9h.21q6.27-.28,11.63-.49A148,148,0,0,1,374.41,319.23Z"/></g></g></g></g></svg>