<svg xmlns="http://www.w3.org/2000/svg" viewBox="0 0 523.51 454.56"><defs><style>.cls-1{fill:#01b3e4;}</style></defs><g id="Calque_2" data-name="Calque 2"><g id="Calque_vectoriel" data-name="Calque vectoriel"><g id="Amiable"><path class="cls-1" d="M512.05,292.3a387.74,387.74,0,0,0-38.64-98.21C536.55,144.9,521.67,40.14,447.5,10.28c-66.57-26.8-149.41,15.15-150.3,98-.39,36.89,17,74.1,52.17,94.6h0c2.61,1.57,5.31,3,8,4.35h0a109.4,109.4,0,0,0,27.12,9.11c1,5.7,1.63,11.45,2.31,17.19-15.26,3.65-30.95,5.14-46.61,5.48-1.63-11.23-.93-22.91-3.26-33.94-8.69,2.59-36.46,10.77-60.59,19.63q-1.62-19.66-2.56-39.39h0c-9.09,2.29-58.3,16.92-104.16,28.41A201,201,0,0,1,145,218.81c-.42,8.85.36,17.75.76,26.6h0c0,.54.07,1.09.1,1.64-7.51-.35-15-.83-22.5-1.64q.5-14.5,2.29-28.9c7.05,0,24.86-2,39.41-7.44,0,0,0,0,0,0C242.76,179.82,258,72.24,191.72,22.4A107.17,107.17,0,0,0,149.94,2.67a112,112,0,0,0-49.43.18A104.53,104.53,0,0,0,79.81,10c-70.2,30.06-84,129.9-26,179.42C-4.1,301.38-.07,437.25.13,454.53c9.77.28,79.92-1,174.24-5.2-17.93-38.32-33.45-78-42.72-119.34a246.48,246.48,0,0,0,26-2.17c2.19,9.38,9.22,35.61,13.4,50.33h0c8.6-2.69,35.55-11.4,47.11-15.29q-1.74-13.41-3.39-26.82-12.72,4.31-25.48,8.48c-2-7.42-4-14.85-5.72-22.34,16.41-6.79,22.47-25.5,24.43-41.8h0c1.2-7.88.15-16.69-6.16-22.23h0c-7.74-7.48-19.06-9.13-29.4-9.93q-.27-3.84-.48-7.69c25.95-6.59,51.44-14.79,77.35-21.53q.6,8,1.25,16c-3.11,1.32-19.22,8.36-34.67,15.69h0A1048.66,1048.66,0,0,0,234.38,398.1h0c33.87-4.43,104.46-29,121.63-36.68-2.54-14-4.7-28.13-6.6-42.27,13,.53,26-1,38.81-3.2-2.5,45.33-20,87.69-36.79,129.3,10.55-.15,147-2.16,168.11-2.5C520.33,433.9,531.66,372.36,512.05,292.3ZM180.12,286c-1.84,11.68-9.7,13.53-20,14.73a234.69,234.69,0,0,1-50.66,2.59A120.68,120.68,0,0,1,86,300.1c-6.13-1.72-12.17-6.63-18.69-2.76C57,302.14,57.76,317.59,68,322c11.47,4.88,24.1,6.76,36.47,7.63a525.62,525.62,0,0,0,30.09,95.19c-35.87,2-71.77,4-107.71,3.77,2.16-85.71,17.05-173.92,62.35-248-50.28-24-59.89-97.06-17.1-133,49.23-44.16,130.37-10.91,134.06,55.24,5.21,53.61-50.45,99-101.93,83.4-2.72,10.56-6.48,37.13-7.13,53.52-6.52-1.58-12.84-6.43-19.72-4a13.35,13.35,0,0,0-8.24,16.84c7.36,20.21,104.5,21.1,108.79,21.54C179.74,274.33,181.21,282,180.12,286Zm75.17,81.5c-1-5.45-2.11-10.91-3-16.39,4.8-1.69,22.34-8,37.54-12.7-3.38-26.19-6.87-47.31-9.35-73.65-8.59,3.65-17.12,7.44-25.42,11.7,1.8,16.3,3.15,27.52,5.47,43.76q-6,2.07-12.05,4.19c-2.36-19-4-39.62-5.12-58.75,22.64-11,46.33-19.44,70.28-27.15,0,.26.05,2,.07,2.28-21.49,3.81-22.58,23.82-20.58,42.17,1.91,17.56,10.37,32.8,29.2,33.71,1.24,9.41,2.53,18.82,4,28.2C323.18,346.07,276.28,362.91,255.29,367.45Zm205.38,49.74q-35.1.57-70.19,1c13.92-34.69,23.06-71.35,24.76-108.77,15.79-5.75,32.67-11.88,45.41-23,6.7-8.2.44-21.61-10.23-21.43a14.44,14.44,0,0,0-9.24,3.48,165.43,165.43,0,0,1-27.5,13.44c-28.53,10.2-59.85,13.8-89.72,8a4.33,4.33,0,0,1-3.38-3.32,99.42,99.42,0,0,1-1.91-15.79,4.35,4.35,0,0,1,3.83-4.58c6.76-.84,13.69-.4,20.49-.76h0a247.82,247.82,0,0,0,45.76-5.12h0A231.9,231.9,0,0,0,415,253.15h0c9.47-4.32,23.28-4.7,28.53-14.8,4.77-10.24-6.57-22-17-17.53-4.57,1.91-9.24,3.63-13.94,5.25-.31-2.65-.66-5.3-1-7.95h0q-2-13.74-4.94-27.34a81.31,81.31,0,0,1-28.26-4.46h0c-76.59-27.25-69.25-138.75,10.47-155.38,81-16.36,131.29,85.05,69.71,139.82h0a80.94,80.94,0,0,1-22.54,14c46,66.94,66.27,151.23,59.05,231.9Z"/></g></g></g></svg>