<svg id="Phone_Box" data-name="Phone Box" xmlns="http://www.w3.org/2000/svg" width="80" height="80" viewBox="0 0 80 80">
  <path id="Rectangle_1438" data-name="Rectangle 1438" d="M16,0H64A16,16,0,0,1,80,16V80a0,0,0,0,1,0,0H16A16,16,0,0,1,0,64V16A16,16,0,0,1,16,0Z" fill="#03B3E4"/>
  <path id="Icon_awesome-phone-alt" data-name="Icon awesome-phone-alt" d="M47.7,34.693l-10.74-4.6a2.3,2.3,0,0,0-2.685.662l-4.756,5.811A35.543,35.543,0,0,1,12.523,19.572l5.811-4.756A2.3,2.3,0,0,0,19,12.131l-4.6-10.74A2.317,2.317,0,0,0,11.756.058L1.784,2.36A2.3,2.3,0,0,0,0,4.6,44.489,44.489,0,0,0,44.494,49.1a2.3,2.3,0,0,0,2.244-1.784l2.3-9.973A2.329,2.329,0,0,0,47.7,34.693Z" transform="translate(15.836 17)" fill="#fff"/>
</svg>
