<svg xmlns="http://www.w3.org/2000/svg" viewBox="0 0 496.57 430.75"><defs><style>.cls-1{fill:#5747af;}</style></defs><g id="Calque_2" data-name="Calque 2"><g id="Calque_vectoriel" data-name="Calque vectoriel"><g id="Couple"><path class="cls-1" d="M493.62,136.73c4.69-23.93,4.42-49.31-5.51-71.61h0C424.42-70.36,223,30.82,295.16,162.91c-29.57,6.64-60.43,2.47-88.61-8C236.42,48.5,177,.27,114.28,0,53.54-.26,0,40.68,0,107.17,0,279.78,206.22,405.84,247.35,430.75c9-4.84,18-9.75,26.93-14.89h0c63.83-36.68,118.38-88.25,161-148.11h0C462.06,228.2,484.34,184,493.62,136.73ZM2,121.07a1,1,0,0,1-.06.38ZM408.7,259.38c-42.59,57.71-97,106.71-160.31,140.64-133-78.1-217.07-192.16-217.07-280.45,0-53.95,38.8-105.2,94.47-91.76,51.38,9.11,80.67,71.73,55,117.07-38.73-20.69-62.07-.49-70.42,36.87h0c-1.72,9.35.86,18.94,4.74,27.43h0c54,61.2,120.24,72.23,191.51,56.39a6,6,0,0,1,7,4c8.17,25.92-10.22,38.25-35.72,44.25-42.29,9.95-67.52,2.86-80.92,1.47-8-.83-11.85-3.42-13.25,8.31-1,8.19,4.29,13.48,14.09,17.69,17,7.26,46.73,9.47,73.82,4.51,57.12-10.45,81.78-35,67.69-81.91-4.81-19.07-14.92-29.1-37.39-24.35-59.77,12.62-107,11.07-158.89-35.1h0c-12.4-13.7-5.93-27.57,5.8-38.81,9.05-5.92,31.81,9.5,42.65,11.92h0c38.49,15.52,81.37,20,121.55,8.47h0a219.57,219.57,0,0,0,30.68-10.25h0c8.82-4.42,19.2-7.05,27-12.87,8-8.38,1.28-23.61-10.43-22.65-13,3.07-24.32,11.45-37.26,15.14C284.77,74,335.35,29.62,387.3,29.12c37.57-.36,75.87,22.24,81.81,70.38C473.73,136.94,458.78,189.83,408.7,259.38Z"/></g></g></g></svg>