<svg xmlns="http://www.w3.org/2000/svg" width="64" height="52.004" viewBox="0 0 64 52.004">
  <g id="Bulles_Discussion_Filet_Gris" data-name="Bulles Discussion Filet Gris" transform="translate(-314.457 -185.996)">
    <path id="Union_8" data-name="Union 8" d="M24299.75,21140.826l-9.285-6.967h-13.049l5.033-3.227h12.871c5.656,0,8.986-2.953,8.986-9.645V21109c2.623,0,3.758,2.135,3.758,4.758v15.344a4.764,4.764,0,0,1-4.758,4.758h-2.141v6.248a.9.9,0,0,1-.9.893A.861.861,0,0,1,24299.75,21140.826Zm-29.855-7.723v-6.24h-2.135a4.766,4.766,0,0,1-4.76-4.76v-15.348a4.766,4.766,0,0,1,4.76-4.76h27.543a4.762,4.762,0,0,1,4.758,4.76v15.348a4.762,4.762,0,0,1-4.758,4.76h-14.7l-9.283,6.961a.893.893,0,0,1-1.422-.721Z" transform="translate(-23939.375 -20915)" fill="none" stroke="#9eabaf" stroke-width="2" opacity="0.997"/>
  </g>
</svg>
