<svg xmlns="http://www.w3.org/2000/svg" viewBox="0 0 534.92 488.48"><defs><style>.cls-1{fill:#5747af;}</style></defs><g id="Calque_2" data-name="Calque 2"><g id="Calque_vectoriel" data-name="Calque vectoriel"><g id="Divorce"><path class="cls-1" d="M373.29,15.9c-69,36.13-73.48,138.94-9.6,182.63v0a103.52,103.52,0,0,0,18.74,10.66h0A108.36,108.36,0,0,0,405,216.42a183.76,183.76,0,0,1-2.29,22.81A196.48,196.48,0,0,1,379.5,244c.81-3.67,4.36-24.24,5-30.88-13-5.07-60-26.12-66-28.19-10.68,17.73-48.47,68.57-51.5,73.35,5.81,5.26,18.59,11.19,20,12.35-2.32,11.69-7.78,28.75-10.84,40.27,7.76,10,41.76,46.14,45.71,52,4.05-5.79,11.61-14.93,15.42-20.88h0a182.58,182.58,0,0,0,12.07-20.91c6.56,1.78,13.14,3.42,19.79,4.72a286.77,286.77,0,0,1-33.33,49.08h0A375.64,375.64,0,0,1,310,402.44q11.75,7,23.46,14.1h0c41.06,24.68,82.86,48.09,124.41,71.94,70.48-83.9,91.71-201.84,46.18-302.72a107.16,107.16,0,0,0,29.64-60.25C547,37.68,450.26-28.25,373.29,15.9Zm-55.1,284.68a20.61,20.61,0,0,0,7.64,11.86l-3.78,5.66c-8.48-4.57-19.75-13.29-19.75-13.29l11.27-43.59s-10.53-5.58-11.63-6.54c7.63-10.53,18.89-28,28-37.77,7.63,3.63,18.74,9.44,27.79,13A116,116,0,0,1,354.29,246c-10.82,1.32-21.73.4-30.07,8.85S317,294.52,318.19,300.58ZM507.08,115.8a81,81,0,0,1-35.3,61.39c44.31,88.58,39.84,196.92-21.47,276.47-32.83-18.8-65.8-37.37-98.22-56.89a323.54,323.54,0,0,0,45.48-68c16.95-.51,35.62-1.39,50.25-10.82,12.83-10,1.6-28.43-15.48-21.43-35.41,14.51-79.63-1.94-83.34-3a6.58,6.58,0,0,1-4.7-6.7q.21-3.65.47-7.29a6.68,6.68,0,0,1,6-6.19c20.93-1.95,66.7-9.21,92.45-19.45,17-8,3.65-32.69-12.61-23.5q.57-6,.84-12h0a255.55,255.55,0,0,0-.14-27.54c-70.83,5-112.72-81.05-65.64-133.93C416.5-.6,512.33,39,507.08,115.8Z"/><path class="cls-1" d="M268.89,351.67c-6.9-11.13-20.41-35.59-22-38.25,1.38-4,7.48-23.82,10.27-31.88-1.47-1.33-16.52-14.82-21.46-19.23,3.71-14.14,19.82-60.34,23.25-71.56C217.31,200,141.23,216.49,133.65,218c.84,6.71,2.87,21,3.49,23.66a149.3,149.3,0,0,1-14.95.45c-1.4-7.41-3.72-23.81-4-25.87a107.18,107.18,0,0,0,14-2.19h0a107.54,107.54,0,0,0,18.92-6.17h0c95.46-41,82.77-181.77-18.43-205C28.24-20.53-42.72,103.74,29.22,182.38c-37,92.17-33.76,186,6.39,276.47h0c3.38,8.19,6.89,16.32,10.75,24.3,7.71-4.34,15.4-8.72,23.13-13h0c43.84-24.68,88.16-48.48,132.35-72.53a338,338,0,0,1-51.41-72.16A125.47,125.47,0,0,0,164.91,320c7.66,15.4,31,50,36.32,57.23C207.87,375.29,268.54,353.7,268.89,351.67ZM160.52,389.9c-34,18.43-68,36.93-101.72,55.88-15.91-38.35-27.27-78.75-29-120.39,0,.14,0,.28,0,.43-2.12-51.83,10-104.5,32.06-151.29C-17.91,114.94,54.27-5.86,144.56,36.09c84.32,44.58,39,170.53-54.41,151.08-.32,16.81,1.68,33.58,4.25,50.17-13.53-2.83-26.77-22.71-35.3-7.22s27.64,34.5,41.26,36.21c46.66,5.85,67-4,70.19-2.38,4.66,2.28,7.53,9.14,6.4,14.19-4.4,19.87-58.78,25.91-89.23,29.57-11.29,1-15.58,16.94-6.39,23.57,11.39,6.49,29.26-.59,42.17-.59C133.59,351.73,146.47,371.31,160.52,389.9ZM187,306.74c12-10,21.38-25.45,13.68-40.66-7.88-22.62-19.32-33.59-44.05-26.72-.53-2.18-.69-2.27-1.18-4.46,24.54-4.11,41.77-6.22,66.18-11.09-2.27,7.53-9.89,35.94-12.87,47.59,6.52,6.71,12.87,12.16,18.32,18-2.73,8.62-3.65,12.84-6.85,21.31,6,9.3,11.5,15.73,17.2,25.18A178.3,178.3,0,0,1,210.19,347C205,339.87,192.42,319.34,187,306.74Z"/></g></g></g></svg>