<svg xmlns="http://www.w3.org/2000/svg" viewBox="0 0 511.59 470.87"><defs><style>.cls-1{fill:#5747af;}</style></defs><g id="Calque_2" data-name="Calque 2"><g id="Calque_vectoriel" data-name="Calque vectoriel"><g id="Separation"><path class="cls-1" d="M233.29,307.59c-9.88-42.07-24.82-83.32-47-120.5C265.85,112.67,192.49-22.85,86.53,3.3-11.94,23.26-25.91,166.93,65.91,207c-1.28,7.67-19.28,4.32-26.15,10.18a90.39,90.39,0,0,0-18.65,11.15c-20.52,11.9-10.65,19.93-1.38,36.4h0c9.19,14.51-12,33.64-5.46,51.66,3.61,18.49,13.64,37.37,30.43,46.87A600.43,600.43,0,0,1,0,462.22c71.64,2.22,143.32,3.31,215,5.25,29.9,3.32,25.32-1.66,27.23-28.29C245.54,395.12,243.52,350.67,233.29,307.59Zm-193-61.79c16-12.78,54.14-15.17,60,6.19.29-.34.59-.67.88-1C76.83,280.65,52.28,283.35,40.31,245.8Zm.56,68.58c-1.74-7.2.49-14.62,2.94-21.39,27,19.44,58.64-4.33,76.57-25.33l-.46.51a114.36,114.36,0,0,0,12.78-18c8.42,38.57-21.35,93.4-63.88,93l1.73,0C54.26,344.23,44.56,328.28,40.87,314.38ZM203.3,440.71q-80.18-2-160.36-3.75a628.06,628.06,0,0,0,27.5-67.25c11,.56,21.91-1.21,31.53-6.65,27.84-25.69,43.58,4.45,71.58-23.82,11.79-12.78,16.82-30.42,19-47.33,1.79-17-24.83-19.63-26.39-2.52-2.14,14.48-7,37.27-25.36,37.15,37.3-35.33,13.59-171.88-24.71-98.2A62.22,62.22,0,0,0,92.5,213.83c-.11-17.92,3.44-28.44-16.92-32.68-63-28.92-56.94-128.3,9.48-148.85C178.41.82,236.05,133.05,149.53,180,193,240.24,214.26,315.71,217.18,389.4,213.8,404.6,226.24,447.14,203.3,440.71Z"/><path class="cls-1" d="M511.59,470.87C488.1,424.23,470.2,374.8,457.38,324.2c50.63-21.72,29.07-92.17-16.65-106-6.41-21,49.73-25.67,57.68-92.46C509.36,60.85,451.79-2.79,386,2.39c-89.52,2.16-136.38,114.89-75.55,180.29-38,66.58-58.24,142.87-60,219.43a424.53,424.53,0,0,0,4.24,65.5c7.43,2.07,18.29.41,26.88,1.15h0c76.67,1.08,153.35,1.34,230,2.12ZM367.08,242.13c18.4-3.21,61.66,14,43.57,35.15-12.93-11.48-30.48-18.46-47.08-10.61-20.65,11.08-62.11,22.75-28.55-12.21h0c9.3-7.2,21-11,32.59-12.36ZM359.21,296c7-2.74,14-6.93,21.57-7.2,3.76,1.69,17.83,7.51,13,11-19.26,5.78-18.19,22.16,2.94,16.85l-.1,0a61.49,61.49,0,0,0,27.74-19.42h0c9.67-13.26,17.81-27.81,29.78-38.92,29.51,31.6-16.13,61.53-44.19,71.83-23,7.19-41.73-16.05-52.53-33.42ZM310.62,104.69c2.2-55.82,67.78-92.76,116.85-66.49,50.32,23.45,59.83,97.63,17.07,133-23.38,20.65-37.49,6.42-30.45,45.1h0c.8,3.67-2.69,6.54-2.28,10.32-31.74-18.7-76.93-10.94-101.43,16.31,9.53-23,21.32-45,34.27-66.34C321.71,160.68,308.53,132.5,310.62,104.69Zm48.85,338.43c-27-.23-54-.39-81-.87-5-54.91,2.54-110.76,18.79-163.31,2.46,16.33,19,27.32,35.06,25.37,17.75,37.07,65,72,103.11,40.67A761.46,761.46,0,0,0,469.86,444Q414.66,443.58,359.47,443.12Z"/><path class="cls-1" d="M397,316.53l-.21.07Z"/></g></g></g></svg>