<svg xmlns="http://www.w3.org/2000/svg" width="34.882" height="39.864" viewBox="0 0 34.882 39.864">
  <path id="Icon_Confidentiel_awesome-user-secret" data-name="Icon Confidentiel awesome-user-secret" d="M29.891,24l1.861-4.874a1.244,1.244,0,0,0-1.168-1.69H26.029a9.873,9.873,0,0,0,1.386-4.983v-.023c3.052-.607,4.983-1.487,4.983-2.468,0-1.036-2.126-1.954-5.458-2.569A20.2,20.2,0,0,0,23.779.95,2.5,2.5,0,0,0,20.7.265L18.555,1.339a2.49,2.49,0,0,1-2.227,0L14.179.265A2.5,2.5,0,0,0,11.1.95,20.362,20.362,0,0,0,7.942,7.4c-3.325.615-5.45,1.534-5.45,2.569,0,.981,1.931,1.861,4.983,2.468v.023a9.873,9.873,0,0,0,1.386,4.983H4.384a1.245,1.245,0,0,0-1.145,1.736l2.009,4.687A10.43,10.43,0,0,0,0,32.889v3.488a3.492,3.492,0,0,0,3.488,3.488H31.394a3.492,3.492,0,0,0,3.488-3.488V32.889A10.434,10.434,0,0,0,29.891,24ZM13.7,37.374l-3.239-14.95,3.862,2.492L16.2,28.03Zm7.475,0L18.687,28.03l1.869-3.114,3.862-2.492Zm3.247-23.242a5.727,5.727,0,0,1-1.285,2.6c-.786.724-3.737,1.744-4.983-1.947a.763.763,0,0,0-1.425,0c-1.324,3.909-4.36,2.523-4.983,1.947a5.65,5.65,0,0,1-1.285-2.6c-.062-.195-.491-.444-.491-.452v-.841a59.96,59.96,0,0,0,7.475.452,58.5,58.5,0,0,0,7.475-.452v.841C24.916,13.688,24.488,13.929,24.425,14.132Z" transform="translate(0 -0.001)" fill="#03b3e4"/>
</svg>
