<svg xmlns="http://www.w3.org/2000/svg" width="55.232" height="35.148" viewBox="0 0 55.232 35.148">
  <path id="Icon_Anonyme_material-group" data-name="Icon Anonyme material-group" d="M39.158,22.563a7.532,7.532,0,1,0-7.532-7.532A7.5,7.5,0,0,0,39.158,22.563Zm-20.084,0a7.532,7.532,0,1,0-7.532-7.532A7.5,7.5,0,0,0,19.074,22.563Zm0,5.021c-5.85,0-17.574,2.937-17.574,8.787v6.276H36.648V36.371C36.648,30.522,24.923,27.584,19.074,27.584Zm20.084,0c-.728,0-1.557.05-2.435.126,2.912,2.109,4.946,4.946,4.946,8.661v6.276H56.732V36.371C56.732,30.522,45.008,27.584,39.158,27.584Z" transform="translate(-1.5 -7.5)" fill="#03b3e4"/>
</svg>
